Coordinates
version=1
nRows=12
nColumns=24
inDegrees=yes

Units are S.I. units (second, meters, Newtons, ...)
Angles are in degrees.

endheader
time	pelvis_tilt	pelvis_list	pelvis_rotation	pelvis_tx	pelvis_ty	pelvis_tz	hip_flexion_r	hip_adduction_r	hip_rotation_r	knee_angle_r	ankle_angle_r	subtalar_angle_r	mtp_angle_r	hip_flexion_l	hip_adduction_l	hip_rotation_l	knee_angle_l	ankle_angle_l	subtalar_angle_l	mtp_angle_l	lumbar_extension	lumbar_bending	lumbar_rotation
      3.30500000	     -7.84062273	     -5.92508437	      0.84948471	     -2.29226541	     -0.01911912	     -0.23625645	     23.59236562	     10.33651747	      2.27473241	    -20.97834405	     -0.66391405	    -15.43615690	     -0.12191431	      8.23094263	    -11.25676509	    -10.35658097	    -54.55741525	    -28.88869414	     -3.32727714	     27.08230861	      0.43040080	      7.13227776	     -1.85396894
      3.31000000	     -7.81167804	     -5.79099047	      0.96603171	     -2.28591483	     -0.01796051	     -0.23607476	     22.97226010	     10.16927123	      2.14302426	    -20.70724933	     -0.18278864	    -15.16121089	     -0.07602745	      9.11843588	    -11.16828509	    -10.08644682	    -55.45244735	    -27.21313287	     -4.46098211	     25.98685172	      0.38420087	      6.93098573	     -1.67530891
      3.31500000	     -7.75053657	     -5.63168748	      1.09133707	     -2.27958103	     -0.01673376	     -0.23589564	     22.29754727	      9.99413860	      2.11890592	    -20.39043934	      0.10366107	    -15.13112187	      0.12264823	      9.96842936	    -11.03338166	     -9.82803704	    -56.26832069	    -25.48171666	     -5.58802370	     24.50164008	      0.30524301	      6.69718303	     -1.54181964
      3.32000000	     -7.68080447	     -5.50121843	      1.17073190	     -2.27317743	     -0.01546908	     -0.23566136	     21.58967611	      9.87934240	      2.19047354	    -20.03716987	      0.30484888	    -15.18569113	      0.16416570	     10.75821368	    -10.92633474	     -9.59941034	    -56.90942457	    -24.11448240	     -6.85026755	     24.33175163	      0.22747974	      6.49855173	     -1.29949302
      3.32500000	     -7.69557381	     -5.26438657	      1.25508539	     -2.26696195	     -0.01436432	     -0.23555134	     21.04423701	      9.62590682	      2.18169031	    -19.81241005	      0.66535078	    -15.04249210	      0.29178408	     11.70494169	    -10.66038643	     -9.35570119	    -57.66888855	    -22.14329666	     -7.71241331	     21.51742716	      0.21415053	      6.19254184	     -1.11318914
      3.33000000	     -7.61981906	     -5.07700770	      1.30130390	     -2.26063236	     -0.01315257	     -0.23531532	     20.34469330	      9.47522946	      2.36233192	    -19.49415105	      0.85357230	    -15.18587024	      0.17773707	     12.49257628	    -10.46937129	     -9.17955528	    -58.25326124	    -20.56689538	     -8.73498237	     19.82602257	      0.12006762	      5.93208305	     -0.88391959
      3.33500000	     -7.58349944	     -4.90928509	      1.36547865	     -2.25429022	     -0.01199464	     -0.23514611	     19.69068549	      9.32332716	      2.44428971	    -19.16775907	      1.02560195	    -15.26826615	      0.11840779	     13.30849303	    -10.27741125	     -8.95945793	    -58.69728677	    -19.47941646	     -9.96780180	     19.56821306	      0.07636844	      5.69868705	     -0.67401813
      3.34000000	     -7.62049900	     -4.69703097	      1.36354590	     -2.24799454	     -0.01102661	     -0.23495955	     19.15303337	      9.13412029	      2.55869358	    -18.94041273	      1.47545548	    -15.10886638	     -0.31171977	     14.23031016	    -10.04091736	     -8.84021467	    -59.26152528	    -17.71214701	    -10.70764955	     16.39713437	      0.10584537	      5.41871994	     -0.39127556
      3.34500000	     -7.54227332	     -4.51069067	      1.36734835	     -2.24169028	     -0.00993937	     -0.23472015	     18.44679925	      8.99322871	      2.78625024	    -18.62241793	      1.72267599	    -15.19717434	     -0.72246898	     14.98616912	     -9.83589970	     -8.71552571	    -59.65930384	    -16.39101291	    -11.58610718	     14.62774781	      0.01215437	      5.16238713	     -0.16404310
      3.35000000	     -7.53548417	     -4.34635699	      1.39352582	     -2.23538181	     -0.00896435	     -0.23453446	     17.81419373	      8.84751836	      2.89327366	    -18.27272430	      1.89905111	    -15.24315950	     -0.79632628	     15.81189352	     -9.63593212	     -8.54541241	    -59.93666707	    -15.54777384	    -12.64031286	     14.35900625	      0.00527105	      4.93126567	      0.02224398
      3.35500000	     -7.55287904	     -4.15652686	      1.34847809	     -2.22904417	     -0.00809922	     -0.23433793	     17.21386399	      8.67955194	      3.01822224	    -17.96867091	      2.35484821	    -15.00119383	     -1.26116904	     16.66116446	     -9.42141515	     -8.49074954	    -60.28879533	    -13.99798697	    -13.14351157	     11.40732293	      0.02839171	      4.68203405	      0.28693395
      3.36000000	     -7.53113849	     -4.00431164	      1.31736621	     -2.22272946	     -0.00722875	     -0.23401752	     16.54262649	      8.55996400	      3.11450716	    -17.56941284	      2.52045085	    -15.01616989	     -1.25497611	     17.42619819	     -9.25707794	     -8.36713662	    -60.44451286	    -13.14084013	    -13.78427951	     11.52011677	      0.00850637	      4.45465559	      0.52770414
